<?xml version="1.0" encoding="UTF-8" standalone="no"?>
<!DOCTYPE svg PUBLIC "-//W3C//DTD SVG 1.1//EN"
 "http://www.w3.org/Graphics/SVG/1.1/DTD/svg11.dtd">
<!-- Generated by graphviz version 2.38.0 (20140413.2041)
 -->
<!-- Title: snakemake_dag Pages: 1 -->
<svg width="89pt" height="188pt"
 viewBox="0.00 0.00 89.00 188.00" xmlns="http://www.w3.org/2000/svg" xmlns:xlink="http://www.w3.org/1999/xlink">
<g id="graph0" class="graph" transform="scale(1 1) rotate(0) translate(4 184)">
<title>snakemake_dag</title>
<polygon fill="white" stroke="none" points="-4,4 -4,-184 85,-184 85,4 -4,4"/>
<!-- 0 -->
<g id="node1" class="node"><title>0</title>
<path fill="none" stroke="#d6d856" stroke-width="2" stroke-dasharray="5,2" d="M69,-180C69,-180 12,-180 12,-180 6,-180 0,-174 0,-168 0,-168 0,-156 0,-156 0,-150 6,-144 12,-144 12,-144 69,-144 69,-144 75,-144 81,-150 81,-156 81,-156 81,-168 81,-168 81,-174 75,-180 69,-180"/>
<text text-anchor="middle" x="40.5" y="-159.5" font-family="sans" font-size="10.00">filter_variants</text>
</g>
<!-- 2 -->
<g id="node3" class="node"><title>2</title>
<path fill="none" stroke="#56d8d8" stroke-width="2" stroke-dasharray="5,2" d="M55.5,-108C55.5,-108 25.5,-108 25.5,-108 19.5,-108 13.5,-102 13.5,-96 13.5,-96 13.5,-84 13.5,-84 13.5,-78 19.5,-72 25.5,-72 25.5,-72 55.5,-72 55.5,-72 61.5,-72 67.5,-78 67.5,-84 67.5,-84 67.5,-96 67.5,-96 67.5,-102 61.5,-108 55.5,-108"/>
<text text-anchor="middle" x="40.5" y="-87.5" font-family="sans" font-size="10.00">to_csv</text>
</g>
<!-- 0&#45;&gt;2 -->
<g id="edge2" class="edge"><title>0&#45;&gt;2</title>
<path fill="none" stroke="grey" stroke-width="2" d="M40.5,-143.697C40.5,-135.983 40.5,-126.712 40.5,-118.112"/>
<polygon fill="grey" stroke="grey" stroke-width="2" points="44.0001,-118.104 40.5,-108.104 37.0001,-118.104 44.0001,-118.104"/>
</g>
<!-- 1 -->
<g id="node2" class="node"><title>1</title>
<path fill="none" stroke="#d85656" stroke-width="2" stroke-dasharray="5,2" d="M67.5,-36C67.5,-36 13.5,-36 13.5,-36 7.5,-36 1.5,-30 1.5,-24 1.5,-24 1.5,-12 1.5,-12 1.5,-6 7.5,-0 13.5,-0 13.5,-0 67.5,-0 67.5,-0 73.5,-0 79.5,-6 79.5,-12 79.5,-12 79.5,-24 79.5,-24 79.5,-30 73.5,-36 67.5,-36"/>
<text text-anchor="middle" x="40.5" y="-15.5" font-family="sans" font-size="10.00">make_report</text>
</g>
<!-- 2&#45;&gt;1 -->
<g id="edge1" class="edge"><title>2&#45;&gt;1</title>
<path fill="none" stroke="grey" stroke-width="2" d="M40.5,-71.6966C40.5,-63.9827 40.5,-54.7125 40.5,-46.1124"/>
<polygon fill="grey" stroke="grey" stroke-width="2" points="44.0001,-46.1043 40.5,-36.1043 37.0001,-46.1044 44.0001,-46.1043"/>
</g>
</g>
</svg>
